<svg width="16" height="16" viewBox="0 0 16 16" fill="none" xmlns="http://www.w3.org/2000/svg">
<path fill-rule="evenodd" clip-rule="evenodd" d="M7.80589 1.03986C8.4717 0.374049 9.37474 0 10.3163 0C12.2771 0 13.8667 1.58954 13.8667 3.55033C13.8667 4.49193 13.4926 5.39497 12.8268 6.06078L6.68562 12.2019C6.3027 12.5849 5.78335 12.8 5.24182 12.8C4.11415 12.8 3.2 11.8859 3.2 10.7582C3.2 10.2166 3.41513 9.6973 3.79804 9.31438L9.75621 3.35621L10.5105 4.11045L4.55229 10.0686C4.36941 10.2515 4.26667 10.4995 4.26667 10.7582C4.26667 11.2967 4.70326 11.7333 5.24182 11.7333C5.50046 11.7333 5.74849 11.6306 5.93137 11.4477L12.0725 5.30653C12.5383 4.84076 12.8 4.20902 12.8 3.55033C12.8 2.17863 11.688 1.06667 10.3163 1.06667C9.65764 1.06667 9.02591 1.32833 8.56014 1.79411L2.23594 8.1183C1.48726 8.86698 1.06667 9.8824 1.06667 10.9412C1.06667 13.146 2.85402 14.9333 5.05882 14.9333C6.1176 14.9333 7.13301 14.5127 7.8817 13.7641L14.0228 7.62288L14.7772 8.37712L8.63594 14.5183C7.68723 15.467 6.4005 16 5.05882 16C2.26491 16 0 13.735 0 10.9412C0 9.5995 0.532981 8.31277 1.4817 7.36406L7.80589 1.03986Z" fill="#76C1FF"/>
</svg>
