<svg width="80" height="26" viewBox="0 0 80 26" fill="none" xmlns="http://www.w3.org/2000/svg">
<path d="M6.33727 19.8478C5.11802 19.8478 4.02636 19.558 3.0623 18.9783C2.09824 18.3986 1.34685 17.6014 0.808108 16.587C0.269369 15.5435 0 14.3841 0 13.1087C0 11.8623 0.269369 10.7464 0.808108 9.76087C1.34685 8.77536 2.09824 8.00724 3.0623 7.45652C4.02636 6.87681 5.11802 6.58696 6.33727 6.58696C7.1312 6.58696 7.84006 6.71739 8.46386 6.97826C9.08767 7.23913 9.62641 7.60145 10.0801 8.06522V1.97826C10.0801 1.48551 10.2219 1.12319 10.5054 0.891304C10.8173 0.630434 11.1576 0.5 11.5262 0.5C11.8948 0.5 12.2209 0.630434 12.5044 0.891304C12.8163 1.12319 12.9723 1.48551 12.9723 1.97826V18.5C12.9723 18.9348 12.8163 19.2681 12.5044 19.5C12.2209 19.7319 11.8948 19.8478 11.5262 19.8478C11.1576 19.8478 10.8173 19.7319 10.5054 19.5C10.2219 19.2681 10.0801 18.9348 10.0801 18.5V18.3261C9.62641 18.7899 9.08767 19.1522 8.46386 19.413C7.84006 19.7029 7.1312 19.8478 6.33727 19.8478ZM6.59246 17.1522C7.66993 17.1522 8.52057 16.7899 9.14438 16.0652C9.76818 15.3116 10.0801 14.3261 10.0801 13.1087C10.0801 11.9493 9.76818 11.0217 9.14438 10.3261C8.52057 9.63043 7.66993 9.28261 6.59246 9.28261C5.48663 9.28261 4.59345 9.63043 3.91294 10.3261C3.23243 11.0217 2.89217 11.9493 2.89217 13.1087C2.89217 14.3261 3.23243 15.3116 3.91294 16.0652C4.59345 16.7899 5.48663 17.1522 6.59246 17.1522ZM21.9189 19.8478C20.6713 19.8478 19.5372 19.558 18.5164 18.9783C17.524 18.3986 16.7442 17.6014 16.1771 16.587C15.61 15.5435 15.3265 14.3841 15.3265 13.1087C15.3265 11.8623 15.61 10.7464 16.1771 9.76087C16.7442 8.77536 17.524 8.00724 18.5164 7.45652C19.5372 6.87681 20.6713 6.58696 21.9189 6.58696C23.1665 6.58696 24.2866 6.87681 25.279 7.45652C26.2714 8.00724 27.0511 8.77536 27.6182 9.76087C28.2137 10.7464 28.5114 11.8623 28.5114 13.1087C28.5114 14.3841 28.2137 15.5435 27.6182 16.587C27.0511 17.6014 26.2714 18.3986 25.279 18.9783C24.2866 19.558 23.1665 19.8478 21.9189 19.8478ZM21.9189 17.1522C23.0248 17.1522 23.9179 16.7899 24.5985 16.0652C25.279 15.3116 25.6192 14.3261 25.6192 13.1087C25.6192 11.9493 25.279 11.0217 24.5985 10.3261C23.9179 9.63043 23.0248 9.28261 21.9189 9.28261C20.7848 9.28261 19.8774 9.63043 19.1969 10.3261C18.5447 11.0217 18.2187 11.9493 18.2187 13.1087C18.2187 14.3261 18.5447 15.3116 19.1969 16.0652C19.8774 16.7899 20.7848 17.1522 21.9189 17.1522ZM41.7222 19.8478C41.3536 19.8478 41.0133 19.7319 40.7014 19.5C40.4179 19.2681 40.2761 18.9348 40.2761 18.5V13.0217C40.2761 11.7464 39.9926 10.8043 39.4255 10.1957C38.8867 9.58696 38.1637 9.28261 37.2563 9.28261C36.0938 9.28261 35.2432 9.67391 34.7044 10.4565C34.194 11.2101 33.9388 12.0507 33.9388 12.9783V18.5C33.9388 18.9348 33.7829 19.2681 33.471 19.5C33.1874 19.7319 32.8614 19.8478 32.4928 19.8478C32.1241 19.8478 31.7839 19.7319 31.472 19.5C31.1884 19.2681 31.0467 18.9348 31.0467 18.5V8.28261C31.0467 7.78985 31.1884 7.42753 31.472 7.19565C31.7839 6.93478 32.1241 6.80435 32.4928 6.80435C32.8614 6.80435 33.1874 6.93478 33.471 7.19565C33.7829 7.42753 33.9388 7.78985 33.9388 8.28261C34.4209 7.78985 35.0447 7.38406 35.8102 7.06522C36.5758 6.74638 37.2989 6.58696 37.9794 6.58696C39.5672 6.58696 40.829 7.1087 41.7647 8.15217C42.7004 9.19565 43.1683 10.7319 43.1683 12.7609V18.5C43.1683 18.9348 43.0123 19.2681 42.7004 19.5C42.3885 19.7319 42.0624 19.8478 41.7222 19.8478ZM51.6046 25.5C51.0091 25.5 50.3428 25.442 49.6056 25.3261C48.8684 25.2101 48.1453 24.9638 47.4365 24.587C46.8977 24.2971 46.6283 23.8478 46.6283 23.2391C46.6283 22.8913 46.7418 22.5725 46.9686 22.2826C47.2238 21.9928 47.5357 21.8478 47.9043 21.8478C48.1595 21.8478 48.4147 21.9203 48.6699 22.0652C49.2086 22.3551 49.7474 22.558 50.2861 22.6739C50.8248 22.7899 51.3494 22.8478 51.8598 22.8478C52.8805 22.8478 53.7595 22.5725 54.4968 22.0217C55.234 21.5 55.6026 20.6594 55.6026 19.5V18.2826C55.1206 18.7754 54.5535 19.1522 53.9013 19.413C53.2775 19.7029 52.5686 19.8478 51.7747 19.8478C50.6122 19.8478 49.5489 19.558 48.5848 18.9783C47.6491 18.3986 46.8977 17.6014 46.3306 16.587C45.7919 15.5725 45.5225 14.4275 45.5225 13.1522C45.5225 11.8768 45.7919 10.7319 46.3306 9.71739C46.8694 8.7029 47.6066 7.9058 48.5423 7.32609C49.478 6.74638 50.5413 6.5 51.7322 6.58696C52.5545 6.64493 53.2775 6.81884 53.9013 7.1087C54.5535 7.36956 55.1206 7.73188 55.6026 8.19565C55.6026 7.78985 55.7302 7.45652 55.9854 7.19565C56.2689 6.93478 56.6234 6.80435 57.0487 6.80435C57.474 6.80435 57.8143 6.93478 58.0695 7.19565C58.353 7.45652 58.4948 7.78985 58.4948 8.19565V19.587C58.4948 20.9203 58.1829 22.0217 57.5591 22.8913C56.9636 23.7899 56.1413 24.442 55.0922 24.8478C54.0431 25.2826 52.8805 25.5 51.6046 25.5ZM52.115 17.1522C53.1924 17.1522 54.0431 16.7899 54.6669 16.0652C55.2907 15.3116 55.6026 14.3261 55.6026 13.1087C55.6026 11.9493 55.2907 11.0217 54.6669 10.3261C54.0431 9.63043 53.1924 9.28261 52.115 9.28261C51.0091 9.28261 50.116 9.63043 49.4355 10.3261C48.7549 11.0217 48.4147 11.9638 48.4147 13.1522C48.4147 14.3116 48.7408 15.2681 49.3929 16.0217C50.0734 16.7754 50.9808 17.1522 52.115 17.1522ZM63.3534 19.8478C62.9848 19.8478 62.6446 19.7319 62.3327 19.5C62.0491 19.2681 61.9073 18.9348 61.9073 18.5V1.97826C61.9073 1.48551 62.0491 1.12319 62.3327 0.891304C62.6446 0.630434 62.9848 0.5 63.3534 0.5C63.722 0.5 64.0481 0.630434 64.3317 0.891304C64.6436 1.12319 64.7995 1.48551 64.7995 1.97826V18.5C64.7995 18.9348 64.6436 19.2681 64.3317 19.5C64.0481 19.7319 63.722 19.8478 63.3534 19.8478ZM74.2157 19.8478C72.0891 19.8478 70.4303 19.2246 69.2394 17.9783C68.0485 16.7319 67.4531 15.0507 67.4531 12.9348C67.4531 11.0797 68.0485 9.55797 69.2394 8.36956C70.4587 7.18116 72.0182 6.58696 73.9179 6.58696C75.761 6.58696 77.2354 7.13768 78.3413 8.23913C79.4471 9.31159 80 10.6449 80 12.2391C80 12.8768 79.8299 13.3551 79.4896 13.6739C79.1777 13.9928 78.7666 14.1522 78.2562 14.1522H70.8556C70.5721 14.1522 70.4728 14.3116 70.5579 14.6304C70.7847 15.442 71.2384 16.0797 71.9189 16.5435C72.6278 16.9783 73.4217 17.1956 74.3007 17.1956C74.9529 17.1956 75.5767 17.1087 76.1721 16.9348C76.7959 16.7609 77.3347 16.5 77.7883 16.1522C77.9301 16.0362 78.1144 15.9783 78.3413 15.9783C78.6532 15.9783 78.9367 16.1232 79.1919 16.413C79.4471 16.6739 79.5747 16.9928 79.5747 17.3696C79.5747 17.5435 79.5463 17.7174 79.4896 17.8913C79.4329 18.0652 79.3053 18.2391 79.1068 18.413C78.3696 18.9638 77.5757 19.3406 76.725 19.5435C75.9028 19.7464 75.0663 19.8478 74.2157 19.8478ZM76.6825 11.8913C76.8526 11.8913 76.9377 11.8043 76.9377 11.6304C76.9377 10.9638 76.64 10.3841 76.0445 9.8913C75.4774 9.39855 74.7686 9.15217 73.9179 9.15217C73.1807 9.15217 72.4718 9.35507 71.7913 9.76087C71.1392 10.1667 70.7422 10.7029 70.6004 11.3696C70.6004 11.3696 70.6004 11.3841 70.6004 11.413C70.5721 11.529 70.5579 11.6304 70.5579 11.7174C70.5863 11.8043 70.7139 11.8478 70.9407 11.8478L76.6825 11.8913Z" fill="#2C4656"/>
</svg>
