<svg width="24" height="24" viewBox="0 0 24 24" fill="none" xmlns="http://www.w3.org/2000/svg">
<path d="M12 7H20" stroke="#9F9FA9" stroke-width="2" stroke-linecap="round"/>
<path d="M4 7H8" stroke="#9F9FA9" stroke-width="2" stroke-linecap="round"/>
<path d="M17 17H20" stroke="#9F9FA9" stroke-width="2" stroke-linecap="round"/>
<path d="M4 17H12" stroke="#9F9FA9" stroke-width="2" stroke-linecap="round"/>
<path d="M8 7C8 8.10457 8.89543 9 10 9C11.1046 9 12 8.10457 12 7C12 5.89543 11.1046 5 10 5C8.89543 5 8 5.89543 8 7Z" stroke="#9F9FA9" stroke-width="2" stroke-linecap="round"/>
<path d="M13 17C13 18.1046 13.8954 19 15 19C16.1046 19 17 18.1046 17 17C17 15.8954 16.1046 15 15 15C13.8954 15 13 15.8954 13 17Z" stroke="#9F9FA9" stroke-width="2" stroke-linecap="round"/>
</svg>
